<mxfile host="app.diagrams.net" agent="Mozilla/5.0 (Windows NT 10.0; Win64; x64) AppleWebKit/537.36 (KHTML, like Gecko) Chrome/118.0.0.0 Safari/537.36" version="28.0.4">
  <diagram name="第 1 页" id="IGqRzzlgUh-uLNFZAzWO">
    <mxGraphModel dx="854" dy="373" grid="1" gridSize="10" guides="1" tooltips="1" connect="1" arrows="1" fold="1" page="1" pageScale="1" pageWidth="827" pageHeight="1169" math="0" shadow="0">
      <root>
        <mxCell id="0" />
        <mxCell id="1" parent="0" />
        <mxCell id="8pPS6i_me9ZiSAdKw4vT-1" style="edgeStyle=orthogonalEdgeStyle;rounded=0;orthogonalLoop=1;jettySize=auto;html=1;exitX=0.5;exitY=1;exitDx=0;exitDy=0;" edge="1" parent="1">
          <mxGeometry relative="1" as="geometry">
            <mxPoint x="234.0800000000001" y="40" as="sourcePoint" />
            <mxPoint x="234.0800000000001" y="40" as="targetPoint" />
          </mxGeometry>
        </mxCell>
        <mxCell id="8pPS6i_me9ZiSAdKw4vT-18" value="" style="group" vertex="1" connectable="0" parent="1">
          <mxGeometry x="540" y="250" width="244.81103896103878" height="194.8181818181818" as="geometry" />
        </mxCell>
        <mxCell id="8pPS6i_me9ZiSAdKw4vT-19" value="" style="endArrow=none;html=1;rounded=0;" edge="1" parent="8pPS6i_me9ZiSAdKw4vT-18" source="8pPS6i_me9ZiSAdKw4vT-25">
          <mxGeometry width="50" height="50" relative="1" as="geometry">
            <mxPoint x="40" y="120" as="sourcePoint" />
            <mxPoint x="99.99714285714288" y="54.81999999999999" as="targetPoint" />
          </mxGeometry>
        </mxCell>
        <mxCell id="8pPS6i_me9ZiSAdKw4vT-20" value="" style="endArrow=none;html=1;rounded=0;" edge="1" parent="8pPS6i_me9ZiSAdKw4vT-18">
          <mxGeometry width="50" height="50" relative="1" as="geometry">
            <mxPoint x="203.99714285714288" y="130" as="sourcePoint" />
            <mxPoint x="143.99714285714288" y="54.81999999999999" as="targetPoint" />
          </mxGeometry>
        </mxCell>
        <mxCell id="8pPS6i_me9ZiSAdKw4vT-21" value="" style="group" vertex="1" connectable="0" parent="8pPS6i_me9ZiSAdKw4vT-18">
          <mxGeometry x="90" width="64.81818181818176" height="64.81818181818181" as="geometry" />
        </mxCell>
        <mxCell id="8pPS6i_me9ZiSAdKw4vT-22" value="" style="ellipse;whiteSpace=wrap;html=1;aspect=fixed;fillColor=#E6FFCC;" vertex="1" parent="8pPS6i_me9ZiSAdKw4vT-21">
          <mxGeometry width="64.81818181818181" height="64.81818181818181" as="geometry" />
        </mxCell>
        <mxCell id="8pPS6i_me9ZiSAdKw4vT-23" value="&lt;pre style=&quot;font-family: var(--ds-font-family-code); overflow: auto; padding: calc(var(--ds-md-zoom)*8px)calc(var(--ds-md-zoom)*12px); text-wrap: wrap; word-break: break-all; color: rgb(73, 73, 73); font-size: 12.573px; text-align: start; margin-top: 0px !important; margin-bottom: 0px !important;&quot;&gt;&lt;pre style=&quot;font-family: var(--ds-font-family-code); overflow: auto; padding: calc(var(--ds-md-zoom)*8px)calc(var(--ds-md-zoom)*12px); text-wrap: wrap; word-break: break-all; margin-top: 0px !important; margin-bottom: 0px !important;&quot;&gt;C&lt;/pre&gt;&lt;/pre&gt;" style="text;strokeColor=none;align=center;fillColor=none;html=1;verticalAlign=middle;whiteSpace=wrap;rounded=0;" vertex="1" parent="8pPS6i_me9ZiSAdKw4vT-21">
          <mxGeometry x="25.399999999999977" y="24.360000000000014" width="14.02" height="16.09" as="geometry" />
        </mxCell>
        <mxCell id="8pPS6i_me9ZiSAdKw4vT-24" value="" style="group" vertex="1" connectable="0" parent="8pPS6i_me9ZiSAdKw4vT-18">
          <mxGeometry y="130" width="64.81818181818176" height="64.81818181818181" as="geometry" />
        </mxCell>
        <mxCell id="8pPS6i_me9ZiSAdKw4vT-25" value="" style="ellipse;whiteSpace=wrap;html=1;aspect=fixed;fillColor=#CCFF99;" vertex="1" parent="8pPS6i_me9ZiSAdKw4vT-24">
          <mxGeometry width="64.81818181818181" height="64.81818181818181" as="geometry" />
        </mxCell>
        <mxCell id="8pPS6i_me9ZiSAdKw4vT-26" value="&lt;pre style=&quot;font-family: var(--ds-font-family-code); overflow: auto; padding: calc(var(--ds-md-zoom)*8px)calc(var(--ds-md-zoom)*12px); text-wrap: wrap; word-break: break-all; color: rgb(73, 73, 73); font-size: 12.573px; text-align: start; margin-top: 0px !important; margin-bottom: 0px !important;&quot;&gt;&lt;pre style=&quot;font-family: var(--ds-font-family-code); overflow: auto; padding: calc(var(--ds-md-zoom)*8px)calc(var(--ds-md-zoom)*12px); text-wrap: wrap; word-break: break-all; margin-top: 0px !important; margin-bottom: 0px !important;&quot;&gt;B&lt;/pre&gt;&lt;/pre&gt;" style="text;strokeColor=none;align=center;fillColor=none;html=1;verticalAlign=middle;whiteSpace=wrap;rounded=0;" vertex="1" parent="8pPS6i_me9ZiSAdKw4vT-24">
          <mxGeometry x="25.399999999999977" y="24.74000000000001" width="14.02" height="15.34" as="geometry" />
        </mxCell>
        <mxCell id="8pPS6i_me9ZiSAdKw4vT-27" value="" style="group" vertex="1" connectable="0" parent="8pPS6i_me9ZiSAdKw4vT-18">
          <mxGeometry x="179.99285714285702" y="130" width="64.81818181818176" height="64.81818181818181" as="geometry" />
        </mxCell>
        <mxCell id="8pPS6i_me9ZiSAdKw4vT-28" value="" style="ellipse;whiteSpace=wrap;html=1;aspect=fixed;fillColor=#CCFF99;" vertex="1" parent="8pPS6i_me9ZiSAdKw4vT-27">
          <mxGeometry width="64.81818181818181" height="64.81818181818181" as="geometry" />
        </mxCell>
        <mxCell id="8pPS6i_me9ZiSAdKw4vT-29" value="&lt;pre style=&quot;font-family: var(--ds-font-family-code); overflow: auto; padding: calc(var(--ds-md-zoom)*8px)calc(var(--ds-md-zoom)*12px); text-wrap: wrap; word-break: break-all; color: rgb(73, 73, 73); font-size: 12.573px; text-align: start; margin-top: 0px !important; margin-bottom: 0px !important;&quot;&gt;&lt;pre style=&quot;font-family: var(--ds-font-family-code); overflow: auto; padding: calc(var(--ds-md-zoom)*8px)calc(var(--ds-md-zoom)*12px); text-wrap: wrap; word-break: break-all; margin-top: 0px !important; margin-bottom: 0px !important;&quot;&gt;A&lt;/pre&gt;&lt;/pre&gt;" style="text;strokeColor=none;align=center;fillColor=none;html=1;verticalAlign=middle;whiteSpace=wrap;rounded=0;" vertex="1" parent="8pPS6i_me9ZiSAdKw4vT-27">
          <mxGeometry x="25.399999999999977" y="24.360000000000014" width="14.02" height="16.09" as="geometry" />
        </mxCell>
        <mxCell id="8pPS6i_me9ZiSAdKw4vT-30" value="&lt;b&gt;左右旋（LR旋转）&lt;/b&gt;" style="text;strokeColor=none;align=center;fillColor=none;html=1;verticalAlign=middle;whiteSpace=wrap;rounded=0;" vertex="1" parent="1">
          <mxGeometry x="30.000000000000014" y="80" width="110" height="30" as="geometry" />
        </mxCell>
        <mxCell id="8pPS6i_me9ZiSAdKw4vT-60" value="&lt;b&gt;右左旋（RL旋转）&lt;/b&gt;" style="text;strokeColor=none;align=center;fillColor=none;html=1;verticalAlign=middle;whiteSpace=wrap;rounded=0;" vertex="1" parent="1">
          <mxGeometry x="30" y="590" width="110" height="25" as="geometry" />
        </mxCell>
        <mxCell id="8pPS6i_me9ZiSAdKw4vT-85" value="" style="group" vertex="1" connectable="0" parent="1">
          <mxGeometry x="280.00285714285707" y="160" width="234.8153246753247" height="344.8181818181818" as="geometry" />
        </mxCell>
        <mxCell id="8pPS6i_me9ZiSAdKw4vT-68" value="" style="endArrow=none;html=1;rounded=0;" edge="1" parent="8pPS6i_me9ZiSAdKw4vT-85">
          <mxGeometry width="50" height="50" relative="1" as="geometry">
            <mxPoint x="129.99714285714293" y="140.0000000000001" as="sourcePoint" />
            <mxPoint x="179.9942857142858" y="59.82000000000005" as="targetPoint" />
          </mxGeometry>
        </mxCell>
        <mxCell id="8pPS6i_me9ZiSAdKw4vT-69" value="" style="endArrow=none;html=1;rounded=0;" edge="1" parent="8pPS6i_me9ZiSAdKw4vT-85">
          <mxGeometry width="50" height="50" relative="1" as="geometry">
            <mxPoint x="39.99714285714293" y="280.0000000000001" as="sourcePoint" />
            <mxPoint x="89.99428571428581" y="199.82000000000005" as="targetPoint" />
          </mxGeometry>
        </mxCell>
        <mxCell id="8pPS6i_me9ZiSAdKw4vT-82" value="" style="group" vertex="1" connectable="0" parent="8pPS6i_me9ZiSAdKw4vT-85">
          <mxGeometry x="169.99714285714293" width="64.81818181818176" height="64.81818181818181" as="geometry" />
        </mxCell>
        <mxCell id="8pPS6i_me9ZiSAdKw4vT-73" value="" style="ellipse;whiteSpace=wrap;html=1;aspect=fixed;fillColor=#E6FFCC;" vertex="1" parent="8pPS6i_me9ZiSAdKw4vT-82">
          <mxGeometry width="64.81818181818181" height="64.81818181818181" as="geometry" />
        </mxCell>
        <mxCell id="8pPS6i_me9ZiSAdKw4vT-74" value="&lt;pre style=&quot;font-family: var(--ds-font-family-code); overflow: auto; padding: calc(var(--ds-md-zoom)*8px)calc(var(--ds-md-zoom)*12px); text-wrap: wrap; word-break: break-all; color: rgb(73, 73, 73); font-size: 12.573px; text-align: start; margin-top: 0px !important; margin-bottom: 0px !important;&quot;&gt;&lt;pre style=&quot;font-family: var(--ds-font-family-code); overflow: auto; padding: calc(var(--ds-md-zoom)*8px)calc(var(--ds-md-zoom)*12px); text-wrap: wrap; word-break: break-all; margin-top: 0px !important; margin-bottom: 0px !important;&quot;&gt;A&lt;/pre&gt;&lt;/pre&gt;" style="text;strokeColor=none;align=center;fillColor=none;html=1;verticalAlign=middle;whiteSpace=wrap;rounded=0;" vertex="1" parent="8pPS6i_me9ZiSAdKw4vT-82">
          <mxGeometry x="25.399999999999977" y="24.74000000000001" width="14.02" height="15.34" as="geometry" />
        </mxCell>
        <mxCell id="8pPS6i_me9ZiSAdKw4vT-83" value="" style="group" vertex="1" connectable="0" parent="8pPS6i_me9ZiSAdKw4vT-85">
          <mxGeometry x="79.99714285714293" y="140" width="64.81818181818176" height="64.81818181818181" as="geometry" />
        </mxCell>
        <mxCell id="8pPS6i_me9ZiSAdKw4vT-76" value="" style="ellipse;whiteSpace=wrap;html=1;aspect=fixed;fillColor=#CCFF99;" vertex="1" parent="8pPS6i_me9ZiSAdKw4vT-83">
          <mxGeometry width="64.81818181818181" height="64.81818181818181" as="geometry" />
        </mxCell>
        <mxCell id="8pPS6i_me9ZiSAdKw4vT-77" value="C" style="text;strokeColor=none;align=center;fillColor=none;html=1;verticalAlign=middle;whiteSpace=wrap;rounded=0;" vertex="1" parent="8pPS6i_me9ZiSAdKw4vT-83">
          <mxGeometry x="22.409999999999968" y="22.409999999999968" width="20" height="20" as="geometry" />
        </mxCell>
        <mxCell id="8pPS6i_me9ZiSAdKw4vT-84" value="" style="group" vertex="1" connectable="0" parent="8pPS6i_me9ZiSAdKw4vT-85">
          <mxGeometry y="280" width="64.81818181818181" height="64.81818181818181" as="geometry" />
        </mxCell>
        <mxCell id="8pPS6i_me9ZiSAdKw4vT-79" value="" style="ellipse;whiteSpace=wrap;html=1;aspect=fixed;fillColor=#99FF33;" vertex="1" parent="8pPS6i_me9ZiSAdKw4vT-84">
          <mxGeometry width="64.81818181818181" height="64.81818181818181" as="geometry" />
        </mxCell>
        <mxCell id="8pPS6i_me9ZiSAdKw4vT-80" value="&lt;pre style=&quot;font-family: var(--ds-font-family-code); overflow: auto; padding: calc(var(--ds-md-zoom)*8px)calc(var(--ds-md-zoom)*12px); text-wrap: wrap; word-break: break-all; color: rgb(73, 73, 73); font-size: 12.573px; text-align: start; margin-top: 0px !important; margin-bottom: 0px !important;&quot;&gt;&lt;pre style=&quot;font-family: var(--ds-font-family-code); overflow: auto; padding: calc(var(--ds-md-zoom)*8px)calc(var(--ds-md-zoom)*12px); text-wrap: wrap; word-break: break-all; margin-top: 0px !important; margin-bottom: 0px !important;&quot;&gt;B&lt;/pre&gt;&lt;/pre&gt;" style="text;strokeColor=none;align=center;fillColor=none;html=1;verticalAlign=middle;whiteSpace=wrap;rounded=0;" vertex="1" parent="8pPS6i_me9ZiSAdKw4vT-84">
          <mxGeometry x="25.399999999999977" y="24.360000000000014" width="14.02" height="16.09" as="geometry" />
        </mxCell>
        <mxCell id="8pPS6i_me9ZiSAdKw4vT-81" style="edgeStyle=orthogonalEdgeStyle;rounded=0;orthogonalLoop=1;jettySize=auto;html=1;exitX=0.5;exitY=1;exitDx=0;exitDy=0;entryX=0.498;entryY=0.627;entryDx=0;entryDy=0;entryPerimeter=0;" edge="1" parent="8pPS6i_me9ZiSAdKw4vT-84" source="8pPS6i_me9ZiSAdKw4vT-80" target="8pPS6i_me9ZiSAdKw4vT-79">
          <mxGeometry relative="1" as="geometry" />
        </mxCell>
        <mxCell id="8pPS6i_me9ZiSAdKw4vT-86" value="" style="group" vertex="1" connectable="0" parent="1">
          <mxGeometry x="39.999999999999986" y="160" width="227.59" height="344.8181818181818" as="geometry" />
        </mxCell>
        <mxCell id="8pPS6i_me9ZiSAdKw4vT-5" value="" style="group" vertex="1" connectable="0" parent="8pPS6i_me9ZiSAdKw4vT-86">
          <mxGeometry x="127.59285714285716" width="64.81818181818181" height="64.81818181818181" as="geometry" />
        </mxCell>
        <mxCell id="8pPS6i_me9ZiSAdKw4vT-6" value="" style="ellipse;whiteSpace=wrap;html=1;aspect=fixed;fillColor=#E6FFCC;" vertex="1" parent="8pPS6i_me9ZiSAdKw4vT-5">
          <mxGeometry width="64.81818181818181" height="64.81818181818181" as="geometry" />
        </mxCell>
        <mxCell id="8pPS6i_me9ZiSAdKw4vT-7" value="&lt;pre style=&quot;font-family: var(--ds-font-family-code); overflow: auto; padding: calc(var(--ds-md-zoom)*8px)calc(var(--ds-md-zoom)*12px); text-wrap: wrap; word-break: break-all; color: rgb(73, 73, 73); font-size: 12.573px; text-align: start; margin-top: 0px !important; margin-bottom: 0px !important;&quot;&gt;&lt;pre style=&quot;font-family: var(--ds-font-family-code); overflow: auto; padding: calc(var(--ds-md-zoom)*8px)calc(var(--ds-md-zoom)*12px); text-wrap: wrap; word-break: break-all; margin-top: 0px !important; margin-bottom: 0px !important;&quot;&gt;A&lt;/pre&gt;&lt;/pre&gt;" style="text;strokeColor=none;align=center;fillColor=none;html=1;verticalAlign=middle;whiteSpace=wrap;rounded=0;" vertex="1" parent="8pPS6i_me9ZiSAdKw4vT-5">
          <mxGeometry x="25.399999999999977" y="24.74000000000001" width="14.02" height="15.34" as="geometry" />
        </mxCell>
        <mxCell id="8pPS6i_me9ZiSAdKw4vT-8" value="" style="group" vertex="1" connectable="0" parent="8pPS6i_me9ZiSAdKw4vT-86">
          <mxGeometry x="57.592857142857156" y="140" width="64.81818181818181" height="64.81818181818181" as="geometry" />
        </mxCell>
        <mxCell id="8pPS6i_me9ZiSAdKw4vT-9" value="" style="ellipse;whiteSpace=wrap;html=1;aspect=fixed;fillColor=#CCFF99;" vertex="1" parent="8pPS6i_me9ZiSAdKw4vT-8">
          <mxGeometry width="64.81818181818181" height="64.81818181818181" as="geometry" />
        </mxCell>
        <mxCell id="8pPS6i_me9ZiSAdKw4vT-10" value="&lt;pre style=&quot;font-family: var(--ds-font-family-code); overflow: auto; padding: calc(var(--ds-md-zoom)*8px)calc(var(--ds-md-zoom)*12px); text-wrap: wrap; word-break: break-all; color: rgb(73, 73, 73); font-size: 12.573px; text-align: start; margin-top: 0px !important; margin-bottom: 0px !important;&quot;&gt;&lt;pre style=&quot;font-family: var(--ds-font-family-code); overflow: auto; padding: calc(var(--ds-md-zoom)*8px)calc(var(--ds-md-zoom)*12px); text-wrap: wrap; word-break: break-all; margin-top: 0px !important; margin-bottom: 0px !important;&quot;&gt;B&lt;/pre&gt;&lt;/pre&gt;" style="text;strokeColor=none;align=center;fillColor=none;html=1;verticalAlign=middle;whiteSpace=wrap;rounded=0;" vertex="1" parent="8pPS6i_me9ZiSAdKw4vT-8">
          <mxGeometry x="25.399999999999977" y="24.360000000000014" width="14.02" height="16.09" as="geometry" />
        </mxCell>
        <mxCell id="8pPS6i_me9ZiSAdKw4vT-11" value="" style="group" vertex="1" connectable="0" parent="8pPS6i_me9ZiSAdKw4vT-86">
          <mxGeometry x="129.99571428571423" y="280" width="64.81818181818181" height="64.81818181818181" as="geometry" />
        </mxCell>
        <mxCell id="8pPS6i_me9ZiSAdKw4vT-12" value="" style="ellipse;whiteSpace=wrap;html=1;aspect=fixed;fillColor=#99FF33;" vertex="1" parent="8pPS6i_me9ZiSAdKw4vT-11">
          <mxGeometry width="64.81818181818181" height="64.81818181818181" as="geometry" />
        </mxCell>
        <mxCell id="8pPS6i_me9ZiSAdKw4vT-13" value="&lt;pre style=&quot;font-family: var(--ds-font-family-code); overflow: auto; padding: calc(var(--ds-md-zoom)*8px)calc(var(--ds-md-zoom)*12px); text-wrap: wrap; word-break: break-all; color: rgb(73, 73, 73); font-size: 12.573px; text-align: start; margin-top: 0px !important; margin-bottom: 0px !important;&quot;&gt;&lt;pre style=&quot;font-family: var(--ds-font-family-code); overflow: auto; padding: calc(var(--ds-md-zoom)*8px)calc(var(--ds-md-zoom)*12px); text-wrap: wrap; word-break: break-all; margin-top: 0px !important; margin-bottom: 0px !important;&quot;&gt;C&lt;/pre&gt;&lt;/pre&gt;" style="text;strokeColor=none;align=center;fillColor=none;html=1;verticalAlign=middle;whiteSpace=wrap;rounded=0;" vertex="1" parent="8pPS6i_me9ZiSAdKw4vT-11">
          <mxGeometry x="25.399999999999977" y="24.360000000000014" width="14.02" height="16.09" as="geometry" />
        </mxCell>
        <mxCell id="8pPS6i_me9ZiSAdKw4vT-61" value="" style="endArrow=none;html=1;rounded=0;" edge="1" parent="8pPS6i_me9ZiSAdKw4vT-86">
          <mxGeometry width="50" height="50" relative="1" as="geometry">
            <mxPoint x="92.41" y="140.18" as="sourcePoint" />
            <mxPoint x="142.40714285714282" y="60" as="targetPoint" />
          </mxGeometry>
        </mxCell>
        <mxCell id="8pPS6i_me9ZiSAdKw4vT-62" value="" style="endArrow=none;html=1;rounded=0;" edge="1" parent="8pPS6i_me9ZiSAdKw4vT-86">
          <mxGeometry width="50" height="50" relative="1" as="geometry">
            <mxPoint x="157.59" y="280" as="sourcePoint" />
            <mxPoint x="97.59" y="204.82" as="targetPoint" />
          </mxGeometry>
        </mxCell>
        <mxCell id="8pPS6i_me9ZiSAdKw4vT-63" value="&lt;pre style=&quot;font-family: var(--ds-font-family-code); overflow: auto; padding: calc(var(--ds-md-zoom)*8px)calc(var(--ds-md-zoom)*12px); text-wrap: wrap; word-break: break-all; color: rgb(73, 73, 73); font-size: 12.573px; text-align: start; margin-top: 0px !important; margin-bottom: 0px !important;&quot;&gt;&lt;b&gt;bf=+2&lt;/b&gt;&lt;/pre&gt;" style="text;strokeColor=none;align=center;fillColor=none;html=1;verticalAlign=middle;whiteSpace=wrap;rounded=0;" vertex="1" parent="8pPS6i_me9ZiSAdKw4vT-86">
          <mxGeometry x="71.21000000000001" y="22.409999999999997" width="37.59" height="20" as="geometry" />
        </mxCell>
        <mxCell id="8pPS6i_me9ZiSAdKw4vT-64" value="&lt;pre style=&quot;font-family: var(--ds-font-family-code); overflow: auto; padding: calc(var(--ds-md-zoom)*8px)calc(var(--ds-md-zoom)*12px); text-wrap: wrap; word-break: break-all; color: rgb(73, 73, 73); font-size: 12.573px; text-align: start; margin-top: 0px !important; margin-bottom: 0px !important;&quot;&gt;&lt;b&gt;bf=-1&lt;/b&gt;&lt;/pre&gt;" style="text;strokeColor=none;align=center;fillColor=none;html=1;verticalAlign=middle;whiteSpace=wrap;rounded=0;" vertex="1" parent="8pPS6i_me9ZiSAdKw4vT-86">
          <mxGeometry y="161.11" width="40" height="22.59" as="geometry" />
        </mxCell>
        <mxCell id="8pPS6i_me9ZiSAdKw4vT-16" value="&lt;b&gt;初始状态&lt;/b&gt;" style="text;strokeColor=none;align=center;fillColor=none;html=1;verticalAlign=middle;whiteSpace=wrap;rounded=0;" vertex="1" parent="1">
          <mxGeometry x="130" y="120" width="57.59" height="20" as="geometry" />
        </mxCell>
        <mxCell id="8pPS6i_me9ZiSAdKw4vT-98" value="" style="group" vertex="1" connectable="0" parent="1">
          <mxGeometry x="40.00000000000003" y="680" width="217.58999999999995" height="344.81818181818176" as="geometry" />
        </mxCell>
        <mxCell id="8pPS6i_me9ZiSAdKw4vT-33" value="" style="endArrow=none;html=1;rounded=0;" edge="1" parent="8pPS6i_me9ZiSAdKw4vT-98">
          <mxGeometry width="50" height="50" relative="1" as="geometry">
            <mxPoint x="50" y="280.0000000000001" as="sourcePoint" />
            <mxPoint x="99.99714285714288" y="199.82000000000005" as="targetPoint" />
          </mxGeometry>
        </mxCell>
        <mxCell id="8pPS6i_me9ZiSAdKw4vT-92" value="" style="endArrow=none;html=1;rounded=0;" edge="1" parent="8pPS6i_me9ZiSAdKw4vT-98">
          <mxGeometry width="50" height="50" relative="1" as="geometry">
            <mxPoint x="109.99999999999997" y="140.0000000000001" as="sourcePoint" />
            <mxPoint x="49.99999999999997" y="64.82000000000005" as="targetPoint" />
          </mxGeometry>
        </mxCell>
        <mxCell id="8pPS6i_me9ZiSAdKw4vT-93" value="&lt;pre style=&quot;font-family: var(--ds-font-family-code); overflow: auto; padding: calc(var(--ds-md-zoom)*8px)calc(var(--ds-md-zoom)*12px); text-wrap: wrap; word-break: break-all; color: rgb(73, 73, 73); font-size: 12.573px; text-align: start; margin-top: 0px !important; margin-bottom: 0px !important;&quot;&gt;&lt;b&gt;bf=-2&lt;/b&gt;&lt;/pre&gt;" style="text;strokeColor=none;align=center;fillColor=none;html=1;verticalAlign=middle;whiteSpace=wrap;rounded=0;container=0;" vertex="1" parent="8pPS6i_me9ZiSAdKw4vT-98">
          <mxGeometry x="74.81999999999996" y="10" width="40" height="17.59" as="geometry" />
        </mxCell>
        <mxCell id="8pPS6i_me9ZiSAdKw4vT-94" value="&lt;pre style=&quot;font-family: var(--ds-font-family-code); overflow: auto; padding: calc(var(--ds-md-zoom)*8px)calc(var(--ds-md-zoom)*12px); text-wrap: wrap; word-break: break-all; color: rgb(73, 73, 73); font-size: 12.573px; text-align: start; margin-top: 0px !important; margin-bottom: 0px !important;&quot;&gt;&lt;b&gt;bf=+1&lt;/b&gt;&lt;/pre&gt;" style="text;strokeColor=none;align=center;fillColor=none;html=1;verticalAlign=middle;whiteSpace=wrap;rounded=0;container=0;" vertex="1" parent="8pPS6i_me9ZiSAdKw4vT-98">
          <mxGeometry x="172.40999999999994" y="150" width="45.18" height="20" as="geometry" />
        </mxCell>
        <mxCell id="8pPS6i_me9ZiSAdKw4vT-95" value="" style="group" vertex="1" connectable="0" parent="8pPS6i_me9ZiSAdKw4vT-98">
          <mxGeometry width="64.81818181818181" height="64.81818181818176" as="geometry" />
        </mxCell>
        <mxCell id="8pPS6i_me9ZiSAdKw4vT-37" value="" style="ellipse;whiteSpace=wrap;html=1;aspect=fixed;fillColor=#E6FFCC;" vertex="1" parent="8pPS6i_me9ZiSAdKw4vT-95">
          <mxGeometry width="64.81818181818181" height="64.81818181818181" as="geometry" />
        </mxCell>
        <mxCell id="8pPS6i_me9ZiSAdKw4vT-38" value="&lt;pre style=&quot;font-family: var(--ds-font-family-code); overflow: auto; padding: calc(var(--ds-md-zoom)*8px)calc(var(--ds-md-zoom)*12px); text-wrap: wrap; word-break: break-all; color: rgb(73, 73, 73); font-size: 12.573px; text-align: start; margin-top: 0px !important; margin-bottom: 0px !important;&quot;&gt;&lt;pre style=&quot;font-family: var(--ds-font-family-code); overflow: auto; padding: calc(var(--ds-md-zoom)*8px)calc(var(--ds-md-zoom)*12px); text-wrap: wrap; word-break: break-all; margin-top: 0px !important; margin-bottom: 0px !important;&quot;&gt;A&lt;/pre&gt;&lt;/pre&gt;" style="text;strokeColor=none;align=center;fillColor=none;html=1;verticalAlign=middle;whiteSpace=wrap;rounded=0;" vertex="1" parent="8pPS6i_me9ZiSAdKw4vT-95">
          <mxGeometry x="25.399999999999977" y="24.74000000000001" width="14.02" height="15.34" as="geometry" />
        </mxCell>
        <mxCell id="8pPS6i_me9ZiSAdKw4vT-96" value="" style="group" vertex="1" connectable="0" parent="8pPS6i_me9ZiSAdKw4vT-98">
          <mxGeometry x="90" y="140" width="64.81818181818184" height="64.81818181818176" as="geometry" />
        </mxCell>
        <mxCell id="8pPS6i_me9ZiSAdKw4vT-40" value="" style="ellipse;whiteSpace=wrap;html=1;aspect=fixed;fillColor=#CCFF99;" vertex="1" parent="8pPS6i_me9ZiSAdKw4vT-96">
          <mxGeometry width="64.81818181818181" height="64.81818181818181" as="geometry" />
        </mxCell>
        <mxCell id="8pPS6i_me9ZiSAdKw4vT-41" value="B" style="text;strokeColor=none;align=center;fillColor=none;html=1;verticalAlign=middle;whiteSpace=wrap;rounded=0;" vertex="1" parent="8pPS6i_me9ZiSAdKw4vT-96">
          <mxGeometry x="22.409999999999997" y="22.409999999999968" width="20" height="20" as="geometry" />
        </mxCell>
        <mxCell id="8pPS6i_me9ZiSAdKw4vT-97" value="" style="group" vertex="1" connectable="0" parent="8pPS6i_me9ZiSAdKw4vT-98">
          <mxGeometry x="0.002857142857067174" y="280" width="64.81818181818181" height="64.81818181818176" as="geometry" />
        </mxCell>
        <mxCell id="8pPS6i_me9ZiSAdKw4vT-43" value="" style="ellipse;whiteSpace=wrap;html=1;aspect=fixed;fillColor=#99FF33;" vertex="1" parent="8pPS6i_me9ZiSAdKw4vT-97">
          <mxGeometry width="64.81818181818181" height="64.81818181818181" as="geometry" />
        </mxCell>
        <mxCell id="8pPS6i_me9ZiSAdKw4vT-44" value="&lt;pre style=&quot;font-family: var(--ds-font-family-code); overflow: auto; padding: calc(var(--ds-md-zoom)*8px)calc(var(--ds-md-zoom)*12px); text-wrap: wrap; word-break: break-all; color: rgb(73, 73, 73); font-size: 12.573px; text-align: start; margin-top: 0px !important; margin-bottom: 0px !important;&quot;&gt;&lt;pre style=&quot;font-family: var(--ds-font-family-code); overflow: auto; padding: calc(var(--ds-md-zoom)*8px)calc(var(--ds-md-zoom)*12px); text-wrap: wrap; word-break: break-all; margin-top: 0px !important; margin-bottom: 0px !important;&quot;&gt;C&lt;/pre&gt;&lt;/pre&gt;" style="text;strokeColor=none;align=center;fillColor=none;html=1;verticalAlign=middle;whiteSpace=wrap;rounded=0;" vertex="1" parent="8pPS6i_me9ZiSAdKw4vT-97">
          <mxGeometry x="25.399999999999977" y="24.360000000000014" width="14.02" height="16.09" as="geometry" />
        </mxCell>
        <mxCell id="8pPS6i_me9ZiSAdKw4vT-45" style="edgeStyle=orthogonalEdgeStyle;rounded=0;orthogonalLoop=1;jettySize=auto;html=1;exitX=0.5;exitY=1;exitDx=0;exitDy=0;entryX=0.498;entryY=0.627;entryDx=0;entryDy=0;entryPerimeter=0;" edge="1" parent="8pPS6i_me9ZiSAdKw4vT-97" source="8pPS6i_me9ZiSAdKw4vT-44" target="8pPS6i_me9ZiSAdKw4vT-43">
          <mxGeometry relative="1" as="geometry" />
        </mxCell>
        <mxCell id="8pPS6i_me9ZiSAdKw4vT-116" value="" style="group" vertex="1" connectable="0" parent="1">
          <mxGeometry x="260" y="690" width="259.64103896103876" height="344.81818181818176" as="geometry" />
        </mxCell>
        <mxCell id="8pPS6i_me9ZiSAdKw4vT-101" value="" style="endArrow=none;html=1;rounded=0;" edge="1" parent="8pPS6i_me9ZiSAdKw4vT-116">
          <mxGeometry width="50" height="50" relative="1" as="geometry">
            <mxPoint x="114.82" y="130.0000000000001" as="sourcePoint" />
            <mxPoint x="54.81999999999999" y="54.82000000000005" as="targetPoint" />
          </mxGeometry>
        </mxCell>
        <mxCell id="8pPS6i_me9ZiSAdKw4vT-104" value="" style="group" vertex="1" connectable="0" parent="8pPS6i_me9ZiSAdKw4vT-116">
          <mxGeometry width="64.81818181818181" height="64.81818181818176" as="geometry" />
        </mxCell>
        <mxCell id="8pPS6i_me9ZiSAdKw4vT-105" value="" style="ellipse;whiteSpace=wrap;html=1;aspect=fixed;fillColor=#E6FFCC;" vertex="1" parent="8pPS6i_me9ZiSAdKw4vT-104">
          <mxGeometry width="64.81818181818181" height="64.81818181818181" as="geometry" />
        </mxCell>
        <mxCell id="8pPS6i_me9ZiSAdKw4vT-106" value="&lt;pre style=&quot;font-family: var(--ds-font-family-code); overflow: auto; padding: calc(var(--ds-md-zoom)*8px)calc(var(--ds-md-zoom)*12px); text-wrap: wrap; word-break: break-all; color: rgb(73, 73, 73); font-size: 12.573px; text-align: start; margin-top: 0px !important; margin-bottom: 0px !important;&quot;&gt;&lt;pre style=&quot;font-family: var(--ds-font-family-code); overflow: auto; padding: calc(var(--ds-md-zoom)*8px)calc(var(--ds-md-zoom)*12px); text-wrap: wrap; word-break: break-all; margin-top: 0px !important; margin-bottom: 0px !important;&quot;&gt;A&lt;/pre&gt;&lt;/pre&gt;" style="text;strokeColor=none;align=center;fillColor=none;html=1;verticalAlign=middle;whiteSpace=wrap;rounded=0;" vertex="1" parent="8pPS6i_me9ZiSAdKw4vT-104">
          <mxGeometry x="25.399999999999977" y="24.74000000000001" width="14.02" height="15.34" as="geometry" />
        </mxCell>
        <mxCell id="8pPS6i_me9ZiSAdKw4vT-107" value="" style="group" vertex="1" connectable="0" parent="8pPS6i_me9ZiSAdKw4vT-116">
          <mxGeometry x="104.82" y="120" width="64.81818181818184" height="64.81818181818176" as="geometry" />
        </mxCell>
        <mxCell id="8pPS6i_me9ZiSAdKw4vT-108" value="" style="ellipse;whiteSpace=wrap;html=1;aspect=fixed;fillColor=#CCFF99;" vertex="1" parent="8pPS6i_me9ZiSAdKw4vT-107">
          <mxGeometry width="64.81818181818181" height="64.81818181818181" as="geometry" />
        </mxCell>
        <mxCell id="8pPS6i_me9ZiSAdKw4vT-109" value="C" style="text;strokeColor=none;align=center;fillColor=none;html=1;verticalAlign=middle;whiteSpace=wrap;rounded=0;" vertex="1" parent="8pPS6i_me9ZiSAdKw4vT-107">
          <mxGeometry x="22.409999999999997" y="22.409999999999968" width="20" height="20" as="geometry" />
        </mxCell>
        <mxCell id="8pPS6i_me9ZiSAdKw4vT-110" value="" style="group" vertex="1" connectable="0" parent="8pPS6i_me9ZiSAdKw4vT-116">
          <mxGeometry x="194.822857142857" y="260" width="64.81818181818181" height="64.81818181818176" as="geometry" />
        </mxCell>
        <mxCell id="8pPS6i_me9ZiSAdKw4vT-111" value="" style="ellipse;whiteSpace=wrap;html=1;aspect=fixed;fillColor=#99FF33;" vertex="1" parent="8pPS6i_me9ZiSAdKw4vT-110">
          <mxGeometry width="64.81818181818181" height="64.81818181818181" as="geometry" />
        </mxCell>
        <mxCell id="8pPS6i_me9ZiSAdKw4vT-112" value="&lt;pre style=&quot;font-family: var(--ds-font-family-code); overflow: auto; padding: calc(var(--ds-md-zoom)*8px)calc(var(--ds-md-zoom)*12px); text-wrap: wrap; word-break: break-all; color: rgb(73, 73, 73); font-size: 12.573px; text-align: start; margin-top: 0px !important; margin-bottom: 0px !important;&quot;&gt;&lt;pre style=&quot;font-family: var(--ds-font-family-code); overflow: auto; padding: calc(var(--ds-md-zoom)*8px)calc(var(--ds-md-zoom)*12px); text-wrap: wrap; word-break: break-all; margin-top: 0px !important; margin-bottom: 0px !important;&quot;&gt;B&lt;/pre&gt;&lt;/pre&gt;" style="text;strokeColor=none;align=center;fillColor=none;html=1;verticalAlign=middle;whiteSpace=wrap;rounded=0;" vertex="1" parent="8pPS6i_me9ZiSAdKw4vT-110">
          <mxGeometry x="25.399999999999977" y="24.360000000000014" width="14.02" height="16.09" as="geometry" />
        </mxCell>
        <mxCell id="8pPS6i_me9ZiSAdKw4vT-113" style="edgeStyle=orthogonalEdgeStyle;rounded=0;orthogonalLoop=1;jettySize=auto;html=1;exitX=0.5;exitY=1;exitDx=0;exitDy=0;entryX=0.498;entryY=0.627;entryDx=0;entryDy=0;entryPerimeter=0;" edge="1" parent="8pPS6i_me9ZiSAdKw4vT-110" source="8pPS6i_me9ZiSAdKw4vT-112" target="8pPS6i_me9ZiSAdKw4vT-111">
          <mxGeometry relative="1" as="geometry" />
        </mxCell>
        <mxCell id="8pPS6i_me9ZiSAdKw4vT-115" value="" style="endArrow=none;html=1;rounded=0;" edge="1" parent="8pPS6i_me9ZiSAdKw4vT-116">
          <mxGeometry width="50" height="50" relative="1" as="geometry">
            <mxPoint x="212.22999999999996" y="260.0000000000001" as="sourcePoint" />
            <mxPoint x="152.22999999999996" y="184.82000000000005" as="targetPoint" />
          </mxGeometry>
        </mxCell>
        <mxCell id="8pPS6i_me9ZiSAdKw4vT-125" value="" style="group" vertex="1" connectable="0" parent="1">
          <mxGeometry x="540" y="720" width="244.81103896103878" height="194.81818181818176" as="geometry" />
        </mxCell>
        <mxCell id="8pPS6i_me9ZiSAdKw4vT-47" value="" style="endArrow=none;html=1;rounded=0;" edge="1" parent="8pPS6i_me9ZiSAdKw4vT-125" source="8pPS6i_me9ZiSAdKw4vT-53">
          <mxGeometry width="50" height="50" relative="1" as="geometry">
            <mxPoint x="40" y="120" as="sourcePoint" />
            <mxPoint x="99.99714285714288" y="54.819999999999936" as="targetPoint" />
          </mxGeometry>
        </mxCell>
        <mxCell id="8pPS6i_me9ZiSAdKw4vT-48" value="" style="endArrow=none;html=1;rounded=0;" edge="1" parent="8pPS6i_me9ZiSAdKw4vT-125">
          <mxGeometry width="50" height="50" relative="1" as="geometry">
            <mxPoint x="203.99714285714288" y="130" as="sourcePoint" />
            <mxPoint x="143.99714285714288" y="54.819999999999936" as="targetPoint" />
          </mxGeometry>
        </mxCell>
        <mxCell id="8pPS6i_me9ZiSAdKw4vT-122" value="" style="group" vertex="1" connectable="0" parent="8pPS6i_me9ZiSAdKw4vT-125">
          <mxGeometry x="90" width="64.81818181818176" height="64.81818181818176" as="geometry" />
        </mxCell>
        <mxCell id="8pPS6i_me9ZiSAdKw4vT-50" value="" style="ellipse;whiteSpace=wrap;html=1;aspect=fixed;fillColor=#E6FFCC;" vertex="1" parent="8pPS6i_me9ZiSAdKw4vT-122">
          <mxGeometry width="64.81818181818181" height="64.81818181818181" as="geometry" />
        </mxCell>
        <mxCell id="8pPS6i_me9ZiSAdKw4vT-51" value="C" style="text;strokeColor=none;align=center;fillColor=none;html=1;verticalAlign=middle;whiteSpace=wrap;rounded=0;" vertex="1" parent="8pPS6i_me9ZiSAdKw4vT-122">
          <mxGeometry x="25.399999999999977" y="24.360000000000014" width="14.02" height="16.09" as="geometry" />
        </mxCell>
        <mxCell id="8pPS6i_me9ZiSAdKw4vT-123" value="" style="group" vertex="1" connectable="0" parent="8pPS6i_me9ZiSAdKw4vT-125">
          <mxGeometry y="130" width="64.81818181818176" height="64.81818181818176" as="geometry" />
        </mxCell>
        <mxCell id="8pPS6i_me9ZiSAdKw4vT-53" value="" style="ellipse;whiteSpace=wrap;html=1;aspect=fixed;fillColor=#CCFF99;" vertex="1" parent="8pPS6i_me9ZiSAdKw4vT-123">
          <mxGeometry width="64.81818181818181" height="64.81818181818181" as="geometry" />
        </mxCell>
        <mxCell id="8pPS6i_me9ZiSAdKw4vT-54" value="A" style="text;strokeColor=none;align=center;fillColor=none;html=1;verticalAlign=middle;whiteSpace=wrap;rounded=0;" vertex="1" parent="8pPS6i_me9ZiSAdKw4vT-123">
          <mxGeometry x="25.399999999999977" y="24.74000000000001" width="14.02" height="15.34" as="geometry" />
        </mxCell>
        <mxCell id="8pPS6i_me9ZiSAdKw4vT-124" value="" style="group" vertex="1" connectable="0" parent="8pPS6i_me9ZiSAdKw4vT-125">
          <mxGeometry x="179.99285714285702" y="130" width="64.81818181818176" height="64.81818181818176" as="geometry" />
        </mxCell>
        <mxCell id="8pPS6i_me9ZiSAdKw4vT-56" value="" style="ellipse;whiteSpace=wrap;html=1;aspect=fixed;fillColor=#CCFF99;" vertex="1" parent="8pPS6i_me9ZiSAdKw4vT-124">
          <mxGeometry width="64.81818181818181" height="64.81818181818181" as="geometry" />
        </mxCell>
        <mxCell id="8pPS6i_me9ZiSAdKw4vT-57" value="B" style="text;strokeColor=none;align=center;fillColor=none;html=1;verticalAlign=middle;whiteSpace=wrap;rounded=0;" vertex="1" parent="8pPS6i_me9ZiSAdKw4vT-124">
          <mxGeometry x="25.399999999999977" y="24.360000000000014" width="14.02" height="16.09" as="geometry" />
        </mxCell>
        <mxCell id="8pPS6i_me9ZiSAdKw4vT-126" value="&lt;b&gt;第一步：对B左旋&lt;/b&gt;" style="text;strokeColor=none;align=center;fillColor=none;html=1;verticalAlign=middle;whiteSpace=wrap;rounded=0;" vertex="1" parent="1">
          <mxGeometry x="363" y="117.5" width="100" height="25" as="geometry" />
        </mxCell>
        <mxCell id="8pPS6i_me9ZiSAdKw4vT-127" value="&lt;b&gt;第二步：对A右旋&lt;/b&gt;" style="text;strokeColor=none;align=center;fillColor=none;html=1;verticalAlign=middle;whiteSpace=wrap;rounded=0;" vertex="1" parent="1">
          <mxGeometry x="613.61" y="118.75" width="97.59" height="22.5" as="geometry" />
        </mxCell>
        <mxCell id="8pPS6i_me9ZiSAdKw4vT-128" value="&lt;b&gt;初始状态&lt;/b&gt;" style="text;strokeColor=none;align=center;fillColor=none;html=1;verticalAlign=middle;whiteSpace=wrap;rounded=0;" vertex="1" parent="1">
          <mxGeometry x="90" y="640" width="50" height="20" as="geometry" />
        </mxCell>
        <mxCell id="8pPS6i_me9ZiSAdKw4vT-129" value="&lt;b&gt;第一步：对B右旋&lt;/b&gt;" style="text;strokeColor=none;align=center;fillColor=none;html=1;verticalAlign=middle;whiteSpace=wrap;rounded=0;" vertex="1" parent="1">
          <mxGeometry x="339.82" y="640" width="100" height="20" as="geometry" />
        </mxCell>
        <mxCell id="8pPS6i_me9ZiSAdKw4vT-130" value="&lt;b&gt;第二步：对A左旋&lt;/b&gt;" style="text;strokeColor=none;align=center;fillColor=none;html=1;verticalAlign=middle;whiteSpace=wrap;rounded=0;" vertex="1" parent="1">
          <mxGeometry x="611.2" y="642.5" width="100" height="15" as="geometry" />
        </mxCell>
      </root>
    </mxGraphModel>
  </diagram>
</mxfile>
